<svg width="54" height="54" viewBox="0 0 54 54" fill="none" xmlns="http://www.w3.org/2000/svg">
<circle cx="27" cy="27" r="27" fill="#41447B"/>
<path d="M26.9998 24.9373C26.413 24.9373 25.9373 25.413 25.9373 25.9998C25.9373 26.5866 26.413 27.0623 26.9998 27.0623C27.5866 27.0623 28.0623 26.5866 28.0623 25.9998C28.0623 25.413 27.5866 24.9373 26.9998 24.9373ZM22.7498 24.9373C22.163 24.9373 21.6873 25.413 21.6873 25.9998C21.6873 26.5866 22.163 27.0623 22.7498 27.0623C23.3366 27.0623 23.8123 26.5866 23.8123 25.9998C23.8123 25.413 23.3366 24.9373 22.7498 24.9373ZM31.2498 24.9373C30.663 24.9373 30.1873 25.413 30.1873 25.9998C30.1873 26.5866 30.663 27.0623 31.2498 27.0623C31.8366 27.0623 32.3123 26.5866 32.3123 25.9998C32.3123 25.413 31.8366 24.9373 31.2498 24.9373ZM37.5048 16.4944C32.2553 10.6924 23.2964 10.2444 17.4944 15.4938C11.6924 20.7433 11.2444 29.7022 16.4938 35.5042L13.0407 38.9573C12.9078 39.0901 12.8332 39.2703 12.8332 39.4581C12.8331 39.8492 13.1503 40.1664 13.5415 40.1665H26.9998C30.5123 40.1664 33.8996 38.8614 36.5042 36.5048C42.3063 31.2553 42.7542 22.2964 37.5048 16.4944ZM26.9998 38.7498H15.2514L17.9838 36.0175C17.9839 36.0174 17.984 36.0173 17.984 36.0172C18.2605 35.7406 18.2604 35.2923 17.9838 35.0158C15.5933 32.6254 14.2502 29.3833 14.2498 26.0027C14.249 18.9618 19.9561 13.2534 26.997 13.2527C34.0377 13.2519 39.7462 18.9589 39.747 25.9998C39.7477 33.0406 34.0407 38.749 26.9998 38.7498Z" fill="white"/>
</svg>
