<svg width="54" height="54" viewBox="0 0 54 54" fill="none" xmlns="http://www.w3.org/2000/svg">
<circle cx="27" cy="27" r="27" fill="#41447B"/>
<path d="M37.2018 16H35.8418V32.8H37.2018V16Z" fill="white"/>
<path d="M33.1208 35.5996H16.8008V36.9996H33.1208V35.5996Z" fill="white"/>
<path d="M20.8815 27.2002H19.5215V34.2002H20.8815V27.2002Z" fill="white"/>
<path d="M24.9616 23H23.6016V34.2H24.9616V23Z" fill="white"/>
<path d="M29.0416 18.7998H27.6816V24.3998H29.0416V18.7998Z" fill="white"/>
<path d="M33.1198 16H31.7598V24.4H33.1198V16Z" fill="white"/>
<path d="M30.4003 34.1998C29.5934 34.1998 28.8045 33.9535 28.1336 33.492C27.4626 33.0305 26.9397 32.3745 26.6309 31.6071C26.3221 30.8396 26.2413 29.9951 26.3987 29.1804C26.5561 28.3657 26.9447 27.6173 27.5153 27.03C28.0859 26.4426 28.8129 26.0426 29.6043 25.8805C30.3958 25.7185 31.2161 25.8016 31.9617 26.1195C32.7072 26.4374 33.3444 26.9757 33.7927 27.6664C34.241 28.3571 34.4803 29.1691 34.4803 29.9998C34.4803 31.1137 34.0505 32.182 33.2853 32.9697C32.5202 33.7573 31.4824 34.1998 30.4003 34.1998ZM30.4003 27.1998C29.8624 27.1998 29.3365 27.364 28.8892 27.6717C28.4419 27.9794 28.0932 28.4167 27.8874 28.9283C27.6815 29.4399 27.6276 30.0029 27.7326 30.5461C27.8375 31.0892 28.0966 31.5881 28.477 31.9797C28.8574 32.3713 29.342 32.638 29.8697 32.746C30.3973 32.854 30.9442 32.7986 31.4412 32.5867C31.9382 32.3747 32.363 32.0159 32.6619 31.5554C32.9608 31.0949 33.1203 30.5536 33.1203 29.9998C33.1203 29.2572 32.8337 28.545 32.3236 28.0199C31.8135 27.4948 31.1217 27.1998 30.4003 27.1998Z" fill="white"/>
<path d="M32.9167 31.6067L31.9551 32.5967L36.0325 36.7941L36.9942 35.8041L32.9167 31.6067Z" fill="white"/>
</svg>
