<svg width="54" height="54" viewBox="0 0 54 54" fill="none" xmlns="http://www.w3.org/2000/svg">
<circle cx="27" cy="27" r="27" fill="#41447B"/>
<path d="M17.1719 37.8125H15.0469C14.8875 37.8125 14.7812 37.7031 14.7812 37.5391V26.6016C14.7812 26.4375 14.8875 26.3281 15.0469 26.3281H17.1719C17.3312 26.3281 17.4375 26.4375 17.4375 26.6016V37.5391C17.4375 37.7031 17.3312 37.8125 17.1719 37.8125ZM15.3125 37.2656H16.9062V26.875H15.3125V37.2656Z" fill="white"/>
<path d="M19.2969 37.8125H17.1719C17.0125 37.8125 16.9062 37.7031 16.9062 37.5391V21.6797C16.9062 21.5156 17.0125 21.4062 17.1719 21.4062H19.2969C19.4562 21.4062 19.5625 21.5156 19.5625 21.6797V37.5391C19.5625 37.7031 19.4562 37.8125 19.2969 37.8125ZM17.4375 37.2656H19.0312V21.9531H17.4375V37.2656Z" fill="white"/>
<path d="M21.4219 37.8125H19.2969C19.1375 37.8125 19.0312 37.7031 19.0312 37.5391V31.5234C19.0312 31.3594 19.1375 31.25 19.2969 31.25H21.4219C21.5812 31.25 21.6875 31.3594 21.6875 31.5234V37.5391C21.6875 37.7031 21.5812 37.8125 21.4219 37.8125ZM19.5625 37.2656H21.1562V31.7969H19.5625V37.2656ZM26.2031 37.8125H24.0781C23.9187 37.8125 23.8125 37.7031 23.8125 37.5391V17.8516C23.8125 17.6875 23.9187 17.5781 24.0781 17.5781H26.2031C26.3625 17.5781 26.4688 17.6875 26.4688 17.8516V37.5391C26.4688 37.7031 26.3625 37.8125 26.2031 37.8125ZM24.3438 37.2656H25.9375V18.125H24.3438V37.2656Z" fill="white"/>
<path d="M28.3281 37.8125H26.2031C26.0437 37.8125 25.9375 37.7031 25.9375 37.5391V23.3203C25.9375 23.1562 26.0437 23.0469 26.2031 23.0469H28.3281C28.4875 23.0469 28.5938 23.1562 28.5938 23.3203V37.5391C28.5938 37.7031 28.4875 37.8125 28.3281 37.8125ZM26.4688 37.2656H28.0625V23.5938H26.4688V37.2656Z" fill="white"/>
<path d="M30.4531 37.8125H28.3281C28.1687 37.8125 28.0625 37.7031 28.0625 37.5391V13.4766C28.0625 13.3125 28.1687 13.2031 28.3281 13.2031H30.4531C30.6125 13.2031 30.7188 13.3125 30.7188 13.4766V37.5391C30.7188 37.7031 30.6125 37.8125 30.4531 37.8125ZM28.5938 37.2656H30.1875V13.75H28.5938V37.2656ZM35.2344 37.8125H33.1094C32.95 37.8125 32.8438 37.7031 32.8438 37.5391V28.7891C32.8438 28.625 32.95 28.5156 33.1094 28.5156H35.2344C35.3938 28.5156 35.5 28.625 35.5 28.7891V37.5391C35.5 37.7031 35.3938 37.8125 35.2344 37.8125ZM33.375 37.2656H34.9688V29.0625H33.375V37.2656Z" fill="white"/>
<path d="M37.3594 37.8125H35.2344C35.075 37.8125 34.9688 37.7031 34.9688 37.5391V16.2109C34.9688 16.0469 35.075 15.9375 35.2344 15.9375H37.3594C37.5187 15.9375 37.625 16.0469 37.625 16.2109V37.5391C37.625 37.7031 37.5187 37.8125 37.3594 37.8125ZM35.5 37.2656H37.0938V16.4844H35.5V37.2656Z" fill="white"/>
<path d="M39.4844 37.8125H37.3594C37.2 37.8125 37.0938 37.7031 37.0938 37.5391V24.4141C37.0938 24.25 37.2 24.1406 37.3594 24.1406H39.4844C39.6437 24.1406 39.75 24.25 39.75 24.4141V37.5391C39.75 37.7031 39.6437 37.8125 39.4844 37.8125ZM37.625 37.2656H39.2188V24.6875H37.625V37.2656Z" fill="white"/>
<path d="M41.6094 37.8125H12.3906C12.2312 37.8125 12.125 37.7031 12.125 37.5391C12.125 37.375 12.2312 37.2656 12.3906 37.2656H41.6094C41.7687 37.2656 41.875 37.375 41.875 37.5391C41.875 37.7031 41.7687 37.8125 41.6094 37.8125Z" fill="white"/>
</svg>
