<svg width="54" height="54" viewBox="0 0 54 54" fill="none" xmlns="http://www.w3.org/2000/svg">
<circle cx="27" cy="27" r="27" fill="#41447B"/>
<path d="M17.5 23.4H19.5C19.6326 23.4 19.7598 23.3456 19.8536 23.2487C19.9473 23.1518 20 23.0204 20 22.8833C20 22.7463 19.9473 22.6149 19.8536 22.518C19.7598 22.4211 19.6326 22.3667 19.5 22.3667H17.5C17.3674 22.3667 17.2402 22.4211 17.1464 22.518C17.0527 22.6149 17 22.7463 17 22.8833C17 23.0204 17.0527 23.1518 17.1464 23.2487C17.2402 23.3456 17.3674 23.4 17.5 23.4ZM18.5 20.3H32.5C32.8978 20.3 33.2794 20.1367 33.5607 19.846C33.842 19.5553 34 19.1611 34 18.75V15.65C34 15.2389 33.842 14.8447 33.5607 14.554C33.2794 14.2633 32.8978 14.1 32.5 14.1H18.5C18.1022 14.1 17.7206 14.2633 17.4393 14.554C17.158 14.8447 17 15.2389 17 15.65V18.75C17 19.1611 17.158 19.5553 17.4393 19.846C17.7206 20.1367 18.1022 20.3 18.5 20.3ZM18 15.65C18 15.513 18.0527 15.3816 18.1464 15.2847C18.2402 15.1878 18.3674 15.1333 18.5 15.1333H32.5C32.6326 15.1333 32.7598 15.1878 32.8536 15.2847C32.9473 15.3816 33 15.513 33 15.65V18.75C33 18.887 32.9473 19.0184 32.8536 19.1153C32.7598 19.2122 32.6326 19.2667 32.5 19.2667H18.5C18.3674 19.2667 18.2402 19.2122 18.1464 19.1153C18.0527 19.0184 18 18.887 18 18.75V15.65ZM33.5 22.3667H29.5C29.3674 22.3667 29.2402 22.4211 29.1464 22.518C29.0527 22.6149 29 22.7463 29 22.8833C29 23.0204 29.0527 23.1518 29.1464 23.2487C29.2402 23.3456 29.3674 23.4 29.5 23.4H33.5C33.6326 23.4 33.7598 23.3456 33.8536 23.2487C33.9473 23.1518 34 23.0204 34 22.8833C34 22.7463 33.9473 22.6149 33.8536 22.518C33.7598 22.4211 33.6326 22.3667 33.5 22.3667ZM32.5 24.4333H30.5C30.1022 24.4333 29.7206 24.5966 29.4393 24.8873C29.158 25.178 29 25.5722 29 25.9833V27.0167C29 27.4278 29.158 27.822 29.4393 28.1127C29.7206 28.4034 30.1022 28.5667 30.5 28.5667H32.5C32.8978 28.5667 33.2794 28.4034 33.5607 28.1127C33.842 27.822 34 27.4278 34 27.0167V25.9833C34 25.5722 33.842 25.178 33.5607 24.8873C33.2794 24.5966 32.8978 24.4333 32.5 24.4333ZM33 27.0167C33 27.1537 32.9473 27.2851 32.8536 27.382C32.7598 27.4789 32.6326 27.5333 32.5 27.5333H30.5C30.3674 27.5333 30.2402 27.4789 30.1464 27.382C30.0527 27.2851 30 27.1537 30 27.0167V25.9833C30 25.8463 30.0527 25.7149 30.1464 25.618C30.2402 25.5211 30.3674 25.4667 30.5 25.4667H32.5C32.6326 25.4667 32.7598 25.5211 32.8536 25.618C32.9473 25.7149 33 25.8463 33 25.9833V27.0167ZM21.5 22.3667C21.3674 22.3667 21.2402 22.4211 21.1464 22.518C21.0527 22.6149 21 22.7463 21 22.8833C21 23.0204 21.0527 23.1518 21.1464 23.2487C21.2402 23.3456 21.3674 23.4 21.5 23.4H23.5C23.6326 23.4 23.7598 23.3456 23.8536 23.2487C23.9473 23.1518 24 23.0204 24 22.8833C24 22.7463 23.9473 22.6149 23.8536 22.518C23.7598 22.4211 23.6326 22.3667 23.5 22.3667H21.5ZM20.5 24.4333H18.5C18.1022 24.4333 17.7206 24.5966 17.4393 24.8873C17.158 25.178 17 25.5722 17 25.9833V27.0167C17 27.4278 17.158 27.822 17.4393 28.1127C17.7206 28.4034 18.1022 28.5667 18.5 28.5667H20.5C20.8978 28.5667 21.2794 28.4034 21.5607 28.1127C21.842 27.822 22 27.4278 22 27.0167V25.9833C22 25.5722 21.842 25.178 21.5607 24.8873C21.2794 24.5966 20.8978 24.4333 20.5 24.4333ZM21 27.0167C21 27.1537 20.9473 27.2851 20.8536 27.382C20.7598 27.4789 20.6326 27.5333 20.5 27.5333H18.5C18.3674 27.5333 18.2402 27.4789 18.1464 27.382C18.0527 27.2851 18 27.1537 18 27.0167V25.9833C18 25.8463 18.0527 25.7149 18.1464 25.618C18.2402 25.5211 18.3674 25.4667 18.5 25.4667H20.5C20.6326 25.4667 20.7598 25.5211 20.8536 25.618C20.9473 25.7149 21 25.8463 21 25.9833V27.0167ZM38 32.7H39C39.2652 32.7 39.5196 32.8089 39.7071 33.0027C39.8946 33.1964 40 33.4593 40 33.7333C40 33.8704 40.0527 34.0018 40.1464 34.0987C40.2402 34.1956 40.3674 34.25 40.5 34.25C40.6326 34.25 40.7598 34.1956 40.8536 34.0987C40.9473 34.0018 41 33.8704 41 33.7333C40.9984 33.1857 40.7872 32.661 40.4125 32.2738C40.0377 31.8866 39.5299 31.6683 39 31.6667V31.15C39 31.013 38.9473 30.8816 38.8536 30.7847C38.7598 30.6878 38.6326 30.6333 38.5 30.6333C38.3674 30.6333 38.2402 30.6878 38.1464 30.7847C38.0527 30.8816 38 31.013 38 31.15V31.6667C37.6699 31.6669 37.345 31.7517 37.0543 31.9132C36.7635 32.0748 36.516 32.3082 36.3338 32.5927C36.1517 32.8771 36.0404 33.2038 36.0101 33.5434C35.9798 33.8831 36.0313 34.2252 36.16 34.5393C36.1899 34.6236 36.2303 34.7035 36.28 34.777C36.3185 34.8546 36.3654 34.9275 36.42 34.994C36.5076 35.1189 36.612 35.2303 36.73 35.3247C36.8116 35.4016 36.9023 35.4676 37 35.521C37.3038 35.7031 37.6487 35.7994 38 35.8H39C39.2652 35.8 39.5196 35.9089 39.7071 36.1027C39.8946 36.2964 40 36.5593 40 36.8333C40 37.1074 39.8946 37.3702 39.7071 37.564C39.5196 37.7578 39.2652 37.8667 39 37.8667H38C37.7348 37.8667 37.4804 37.7578 37.2929 37.564C37.1054 37.3702 37 37.1074 37 36.8333C37 36.6963 36.9473 36.5649 36.8536 36.468C36.7598 36.3711 36.6326 36.3167 36.5 36.3167C36.3674 36.3167 36.2402 36.3711 36.1464 36.468C36.0527 36.5649 36 36.6963 36 36.8333C36 37.3814 36.2107 37.9071 36.5858 38.2947C36.9609 38.6823 37.4696 38.9 38 38.9V39.4167C38 39.5537 38.0527 39.6851 38.1464 39.782C38.2402 39.8789 38.3674 39.9333 38.5 39.9333C38.6326 39.9333 38.7598 39.8789 38.8536 39.782C38.9473 39.6851 39 39.5537 39 39.4167V38.9C39.5304 38.9 40.0391 38.6823 40.4142 38.2947C40.7893 37.9071 41 37.3814 41 36.8333C41 36.2852 40.7893 35.7596 40.4142 35.372C40.0391 34.9844 39.5304 34.7667 39 34.7667H38C37.7348 34.7667 37.4804 34.6578 37.2929 34.464C37.1054 34.2702 37 34.0074 37 33.7333C37 33.4593 37.1054 33.1964 37.2929 33.0027C37.4804 32.8089 37.7348 32.7 38 32.7ZM20.5 34.7667H18.5C18.1022 34.7667 17.7206 34.93 17.4393 35.2207C17.158 35.5113 17 35.9056 17 36.3167V37.35C17 37.7611 17.158 38.1553 17.4393 38.446C17.7206 38.7367 18.1022 38.9 18.5 38.9H20.5C20.8978 38.9 21.2794 38.7367 21.5607 38.446C21.842 38.1553 22 37.7611 22 37.35V36.3167C22 35.9056 21.842 35.5113 21.5607 35.2207C21.2794 34.93 20.8978 34.7667 20.5 34.7667ZM21 37.35C21 37.487 20.9473 37.6184 20.8536 37.7153C20.7598 37.8122 20.6326 37.8667 20.5 37.8667H18.5C18.3674 37.8667 18.2402 37.8122 18.1464 37.7153C18.0527 37.6184 18 37.487 18 37.35V36.3167C18 36.1796 18.0527 36.0482 18.1464 35.9513C18.2402 35.8544 18.3674 35.8 18.5 35.8H20.5C20.6326 35.8 20.7598 35.8544 20.8536 35.9513C20.9473 36.0482 21 36.1796 21 36.3167V37.35ZM26.5 24.4333H24.5C24.1022 24.4333 23.7206 24.5966 23.4393 24.8873C23.158 25.178 23 25.5722 23 25.9833V27.0167C23 27.4278 23.158 27.822 23.4393 28.1127C23.7206 28.4034 24.1022 28.5667 24.5 28.5667H26.5C26.8978 28.5667 27.2794 28.4034 27.5607 28.1127C27.842 27.822 28 27.4278 28 27.0167V25.9833C28 25.5722 27.842 25.178 27.5607 24.8873C27.2794 24.5966 26.8978 24.4333 26.5 24.4333ZM27 27.0167C27 27.1537 26.9473 27.2851 26.8536 27.382C26.7598 27.4789 26.6326 27.5333 26.5 27.5333H24.5C24.3674 27.5333 24.2402 27.4789 24.1464 27.382C24.0527 27.2851 24 27.1537 24 27.0167V25.9833C24 25.8463 24.0527 25.7149 24.1464 25.618C24.2402 25.5211 24.3674 25.4667 24.5 25.4667H26.5C26.6326 25.4667 26.7598 25.5211 26.8536 25.618C26.9473 25.7149 27 25.8463 27 25.9833V27.0167ZM38.5 28.5667C37.9945 28.5649 37.4907 28.6273 37 28.7527V13.5833C37 13.2441 36.9353 12.9082 36.8097 12.5947C36.6841 12.2813 36.4999 11.9965 36.2678 11.7566C36.0356 11.5168 35.76 11.3265 35.4567 11.1966C35.1534 11.0668 34.8283 11 34.5 11H16.5C15.837 11 15.2011 11.2722 14.7322 11.7566C14.2634 12.2411 14 12.8982 14 13.5833V39.4167C14 40.1018 14.2634 40.7589 14.7322 41.2434C15.2011 41.7278 15.837 42 16.5 42H34.5C35.0409 42 35.5673 41.8187 36 41.4833C36.8877 41.8655 37.8464 42.0394 38.8071 41.9925C39.7677 41.9456 40.7062 41.6789 41.5551 41.2119C42.4039 40.7448 43.1419 40.0889 43.7158 39.2915C44.2897 38.4941 44.6852 37.575 44.8738 36.6006C45.0624 35.6261 45.0394 34.6206 44.8064 33.6564C44.5735 32.6923 44.1364 31.7935 43.5267 31.025C42.917 30.2565 42.1499 29.6374 41.2806 29.2123C40.4114 28.7872 39.4617 28.5667 38.5 28.5667ZM34.5 40.9667H16.5C16.1022 40.9667 15.7206 40.8034 15.4393 40.5127C15.158 40.222 15 39.8278 15 39.4167V13.5833C15 13.1722 15.158 12.778 15.4393 12.4873C15.7206 12.1966 16.1022 12.0333 16.5 12.0333H34.5C34.8978 12.0333 35.2794 12.1966 35.5607 12.4873C35.842 12.778 36 13.1722 36 13.5833V29.0833C35.2075 29.4286 34.49 29.9346 33.89 30.5713C33.7784 30.2847 33.5864 30.0391 33.3387 29.866C33.0911 29.693 32.799 29.6003 32.5 29.6H30.5C30.1022 29.6 29.7206 29.7633 29.4393 30.054C29.158 30.3447 29 30.7389 29 31.15V32.1833C29 32.5944 29.158 32.9887 29.4393 33.2793C29.7206 33.57 30.1022 33.7333 30.5 33.7333H32.18C32.1008 34.073 32.0473 34.4185 32.02 34.7667H30.5C30.1022 34.7667 29.7206 34.93 29.4393 35.2207C29.158 35.5113 29 35.9056 29 36.3167V37.35C29 37.7611 29.158 38.1553 29.4393 38.446C29.7206 38.7367 30.1022 38.9 30.5 38.9H32.5C32.6643 38.9011 32.8273 38.8695 32.98 38.807C33.4718 39.6439 34.138 40.3569 34.93 40.8943C34.7919 40.9442 34.6463 40.9687 34.5 40.9667ZM33 31.15V32.1833C33 32.3204 32.9473 32.4518 32.8536 32.5487C32.7598 32.6456 32.6326 32.7 32.5 32.7H30.5C30.3674 32.7 30.2402 32.6456 30.1464 32.5487C30.0527 32.4518 30 32.3204 30 32.1833V31.15C30 31.013 30.0527 30.8816 30.1464 30.7847C30.2402 30.6878 30.3674 30.6333 30.5 30.6333H32.5C32.6326 30.6333 32.7598 30.6878 32.8536 30.7847C32.9473 30.8816 33 31.013 33 31.15ZM32.5 37.8667H30.5C30.3674 37.8667 30.2402 37.8122 30.1464 37.7153C30.0527 37.6184 30 37.487 30 37.35V36.3167C30 36.1796 30.0527 36.0482 30.1464 35.9513C30.2402 35.8544 30.3674 35.8 30.5 35.8H32.02C32.0694 36.5114 32.2315 37.2096 32.5 37.8667ZM38.5 40.9667C37.8867 40.9671 37.2778 40.8588 36.7 40.6463C36.3785 40.5379 36.0699 40.3923 35.78 40.2123C34.9387 39.7152 34.2389 38.9979 33.7509 38.1327C33.263 37.2675 33.004 36.2848 33 35.2833C32.9964 35.1452 33.0031 35.007 33.02 34.87C33.0856 33.8472 33.4249 32.8634 34 32.0283C34.5122 31.267 35.1995 30.6492 36 30.2303C36.3183 30.0565 36.6535 29.9179 37 29.817C37.4875 29.6713 37.9926 29.5982 38.5 29.6C39.9587 29.6 41.3576 30.1988 42.3891 31.2646C43.4205 32.3304 44 33.776 44 35.2833C44 36.7906 43.4205 38.2362 42.3891 39.3021C41.3576 40.3679 39.9587 40.9667 38.5 40.9667ZM27.5 22.3667H25.5C25.3674 22.3667 25.2402 22.4211 25.1464 22.518C25.0527 22.6149 25 22.7463 25 22.8833C25 23.0204 25.0527 23.1518 25.1464 23.2487C25.2402 23.3456 25.3674 23.4 25.5 23.4H27.5C27.6326 23.4 27.7598 23.3456 27.8536 23.2487C27.9473 23.1518 28 23.0204 28 22.8833C28 22.7463 27.9473 22.6149 27.8536 22.518C27.7598 22.4211 27.6326 22.3667 27.5 22.3667ZM26.5 29.6H24.5C24.1022 29.6 23.7206 29.7633 23.4393 30.054C23.158 30.3447 23 30.7389 23 31.15V32.1833C23 32.5944 23.158 32.9887 23.4393 33.2793C23.7206 33.57 24.1022 33.7333 24.5 33.7333H26.5C26.8978 33.7333 27.2794 33.57 27.5607 33.2793C27.842 32.9887 28 32.5944 28 32.1833V31.15C28 30.7389 27.842 30.3447 27.5607 30.054C27.2794 29.7633 26.8978 29.6 26.5 29.6ZM27 32.1833C27 32.3204 26.9473 32.4518 26.8536 32.5487C26.7598 32.6456 26.6326 32.7 26.5 32.7H24.5C24.3674 32.7 24.2402 32.6456 24.1464 32.5487C24.0527 32.4518 24 32.3204 24 32.1833V31.15C24 31.013 24.0527 30.8816 24.1464 30.7847C24.2402 30.6878 24.3674 30.6333 24.5 30.6333H26.5C26.6326 30.6333 26.7598 30.6878 26.8536 30.7847C26.9473 30.8816 27 31.013 27 31.15V32.1833ZM20.5 29.6H18.5C18.1022 29.6 17.7206 29.7633 17.4393 30.054C17.158 30.3447 17 30.7389 17 31.15V32.1833C17 32.5944 17.158 32.9887 17.4393 33.2793C17.7206 33.57 18.1022 33.7333 18.5 33.7333H20.5C20.8978 33.7333 21.2794 33.57 21.5607 33.2793C21.842 32.9887 22 32.5944 22 32.1833V31.15C22 30.7389 21.842 30.3447 21.5607 30.054C21.2794 29.7633 20.8978 29.6 20.5 29.6ZM21 32.1833C21 32.3204 20.9473 32.4518 20.8536 32.5487C20.7598 32.6456 20.6326 32.7 20.5 32.7H18.5C18.3674 32.7 18.2402 32.6456 18.1464 32.5487C18.0527 32.4518 18 32.3204 18 32.1833V31.15C18 31.013 18.0527 30.8816 18.1464 30.7847C18.2402 30.6878 18.3674 30.6333 18.5 30.6333H20.5C20.6326 30.6333 20.7598 30.6878 20.8536 30.7847C20.9473 30.8816 21 31.013 21 31.15V32.1833ZM26.5 34.7667H24.5C24.1022 34.7667 23.7206 34.93 23.4393 35.2207C23.158 35.5113 23 35.9056 23 36.3167V37.35C23 37.7611 23.158 38.1553 23.4393 38.446C23.7206 38.7367 24.1022 38.9 24.5 38.9H26.5C26.8978 38.9 27.2794 38.7367 27.5607 38.446C27.842 38.1553 28 37.7611 28 37.35V36.3167C28 35.9056 27.842 35.5113 27.5607 35.2207C27.2794 34.93 26.8978 34.7667 26.5 34.7667ZM27 37.35C27 37.487 26.9473 37.6184 26.8536 37.7153C26.7598 37.8122 26.6326 37.8667 26.5 37.8667H24.5C24.3674 37.8667 24.2402 37.8122 24.1464 37.7153C24.0527 37.6184 24 37.487 24 37.35V36.3167C24 36.1796 24.0527 36.0482 24.1464 35.9513C24.2402 35.8544 24.3674 35.8 24.5 35.8H26.5C26.6326 35.8 26.7598 35.8544 26.8536 35.9513C26.9473 36.0482 27 36.1796 27 36.3167V37.35Z" fill="white"/>
</svg>
