<svg width="54" height="54" viewBox="0 0 54 54" fill="none" xmlns="http://www.w3.org/2000/svg">
<circle cx="27" cy="27" r="27" fill="#41447B"/>
<path d="M42.4062 23.5141C41.7178 23.5144 41.0447 23.3045 40.4722 22.9109C39.8997 22.5173 39.4535 21.9578 39.19 21.303C38.9265 20.6483 38.8576 19.9278 38.992 19.2328C39.1264 18.5377 39.458 17.8993 39.945 17.3984C40.0446 17.2958 40.1005 17.1567 40.1005 17.0117C40.1005 16.8667 40.0446 16.7276 39.945 16.6251L36.5928 13.1743C36.4932 13.0718 36.3581 13.0142 36.2172 13.0142C36.0763 13.0142 35.9412 13.0718 35.8416 13.1743C35.5254 13.5098 35.1469 13.7764 34.7287 13.9584C34.3105 14.1404 33.8609 14.2339 33.4069 14.2336C32.9462 14.2393 32.4891 14.1503 32.0623 13.972C31.6354 13.7937 31.2474 13.5295 30.9209 13.1949C30.5945 12.8604 30.3361 12.4621 30.1609 12.0236C29.9857 11.585 29.8972 11.1148 29.9006 10.6406C29.9006 10.4956 29.8447 10.3565 29.745 10.2539C29.6454 10.1514 29.5103 10.0938 29.3694 10.0938H24.6306C24.4897 10.0938 24.3546 10.1514 24.255 10.2539C24.1553 10.3565 24.0994 10.4956 24.0994 10.6406C24.1028 11.1148 24.0143 11.585 23.8391 12.0236C23.6639 12.4621 23.4055 12.8604 23.0791 13.1949C22.7526 13.5295 22.3646 13.7937 21.9377 13.972C21.5109 14.1503 21.0538 14.2393 20.5931 14.2336C20.1391 14.2339 19.6895 14.1404 19.2713 13.9584C18.8531 13.7764 18.4746 13.5098 18.1584 13.1743C18.0588 13.0718 17.9237 13.0142 17.7828 13.0142C17.6419 13.0142 17.5068 13.0718 17.4072 13.1743L14.055 16.6251C13.9554 16.7276 13.8995 16.8667 13.8995 17.0117C13.8995 17.1567 13.9554 17.2958 14.055 17.3984C14.3812 17.7236 14.6405 18.1131 14.8173 18.5437C14.9941 18.9744 15.0848 19.4372 15.0841 19.9047C15.0895 20.3788 15.0031 20.8494 14.8298 21.2887C14.6565 21.7281 14.3999 22.1275 14.0749 22.4636C13.7499 22.7996 13.3631 23.0656 12.9371 23.246C12.5111 23.4264 12.0544 23.5175 11.5938 23.5141C11.4529 23.5141 11.3177 23.5717 11.2181 23.6742C11.1185 23.7768 11.0625 23.9159 11.0625 24.0609V28.9391C11.0625 29.0841 11.1185 29.2232 11.2181 29.3258C11.3177 29.4283 11.4529 29.4859 11.5938 29.4859C12.0544 29.4825 12.5111 29.5736 12.9371 29.754C13.3631 29.9344 13.7499 30.2004 14.0749 30.5364C14.3999 30.8725 14.6565 31.2719 14.8298 31.7113C15.0031 32.1506 15.0895 32.6212 15.0841 33.0953C15.0848 33.5628 14.9941 34.0256 14.8173 34.4563C14.6405 34.8869 14.3812 35.2764 14.055 35.6016C13.9554 35.7042 13.8995 35.8433 13.8995 35.9883C13.8995 36.1333 13.9554 36.2724 14.055 36.3749L17.4072 39.8257C17.5068 39.9282 17.6419 39.9858 17.7828 39.9858C17.9237 39.9858 18.0588 39.9282 18.1584 39.8257C18.4746 39.4902 18.8531 39.2236 19.2713 39.0416C19.6895 38.8596 20.1391 38.7661 20.5931 38.7664C21.0796 38.7658 21.5608 38.8693 22.0063 39.0705L22.4312 38.0686C21.8519 37.8067 21.2259 37.6718 20.5931 37.6727C19.5782 37.674 18.5941 38.0319 17.8035 38.6871L15.1611 35.967C15.7978 35.1533 16.1455 34.1401 16.1466 33.0953C16.1579 31.9417 15.7529 30.8248 15.0099 29.9611C14.2668 29.0975 13.2388 28.5485 12.125 28.4206V24.5794C13.2388 24.4515 14.2668 23.9026 15.0099 23.0389C15.7529 22.1752 16.1579 21.0583 16.1466 19.9047C16.1455 18.8599 15.7978 17.8467 15.1611 17.033L17.8035 14.3129C18.5941 14.9681 19.5782 15.326 20.5931 15.3273C21.7137 15.3389 22.7987 14.9219 23.6376 14.1571C24.4766 13.3922 25.0099 12.334 25.1343 11.1875H28.8658C28.9901 12.334 29.5234 13.3922 30.3624 14.1571C31.2013 14.9219 32.2863 15.3389 33.4069 15.3273C34.4218 15.326 35.4059 14.9681 36.1965 14.3129L38.8389 17.033C38.3384 17.6863 38.0161 18.4651 37.9052 19.2892C37.7944 20.1133 37.899 20.953 38.2083 21.7216C38.5176 22.4903 39.0204 23.1601 39.665 23.6622C40.3095 24.1642 41.0723 24.4802 41.875 24.5777V28.4206C40.7612 28.5485 39.7332 29.0975 38.9901 29.9611C38.2471 30.8248 37.8421 31.9417 37.8534 33.0953C37.8545 34.1401 38.2022 35.1533 38.8389 35.967L36.1965 38.6871C35.5508 38.1644 34.7799 37.831 33.9653 37.7222C33.1507 37.6133 32.3227 37.733 31.5687 38.0686L31.9938 39.0705C32.4392 38.8693 32.9204 38.7658 33.4069 38.7664C33.8609 38.7661 34.3105 38.8596 34.7287 39.0416C35.1469 39.2236 35.5254 39.4902 35.8416 39.8257C35.9412 39.9282 36.0763 39.9858 36.2172 39.9858C36.3581 39.9858 36.4932 39.9282 36.5928 39.8257L39.945 36.3749C40.0446 36.2724 40.1005 36.1333 40.1005 35.9883C40.1005 35.8433 40.0446 35.7042 39.945 35.6016C39.6188 35.2764 39.3595 34.8869 39.1827 34.4563C39.0059 34.0256 38.9152 33.5628 38.9159 33.0953C38.9105 32.6212 38.9969 32.1506 39.1702 31.7113C39.3435 31.2719 39.6001 30.8725 39.9251 30.5364C40.2501 30.2004 40.6369 29.9344 41.0629 29.754C41.4889 29.5736 41.9456 29.4825 42.4062 29.4859C42.5471 29.4859 42.6823 29.4283 42.7819 29.3258C42.8815 29.2232 42.9375 29.0841 42.9375 28.9391V24.0609C42.9375 23.9159 42.8815 23.7768 42.7819 23.6742C42.6823 23.5717 42.5471 23.5141 42.4062 23.5141Z" fill="white"/>
<path d="M22.2184 30.328H24.5612V29.2342H22.7497V21.578H31.2497V29.2342H29.4381V30.328H31.7809C31.9218 30.328 32.0569 30.2704 32.1566 30.1678C32.2562 30.0652 32.3122 29.9261 32.3122 29.7811V21.578H32.8434C32.9647 21.5779 33.0823 21.5351 33.1767 21.4567C33.2711 21.3783 33.3366 21.269 33.3623 21.1469C33.388 21.0249 33.3723 20.8975 33.318 20.7859C33.2636 20.6743 33.1737 20.5852 33.0634 20.5334L27.2196 17.7991C27.1505 17.7667 27.0756 17.75 26.9997 17.75C26.9238 17.75 26.8488 17.7667 26.7797 17.7991L20.936 20.5334C20.8256 20.5852 20.7358 20.6743 20.6814 20.7859C20.627 20.8975 20.6114 21.0249 20.6371 21.1469C20.6628 21.269 20.7282 21.3783 20.8226 21.4567C20.917 21.5351 21.0346 21.5779 21.1559 21.578H21.6872V29.7811C21.6872 29.9261 21.7431 30.0652 21.8428 30.1678C21.9424 30.2704 22.0775 30.328 22.2184 30.328ZM26.9997 18.8983L30.3912 20.4842H23.6082L26.9997 18.8983Z" fill="white"/>
<path d="M37.625 26.4995C37.6253 24.5656 37.1274 22.6661 36.1821 20.9948C35.2368 19.3235 33.878 17.9401 32.244 16.9855C30.6101 16.031 28.7595 15.5396 26.8809 15.5612C25.0023 15.5829 23.1629 16.1169 21.5502 17.1089C19.9375 18.1009 18.609 19.5153 17.7004 21.208C16.7917 22.9007 16.3353 24.8112 16.3777 26.7447C16.4201 28.6781 16.9597 30.5655 17.9415 32.2143C18.9234 33.8631 20.3124 35.2144 21.9669 36.1306L22.4706 35.167C20.5949 34.1285 19.1097 32.4752 18.2504 30.4692C17.3911 28.4632 17.2069 26.2194 17.7271 24.0934C18.2472 21.9674 19.4419 20.081 21.1217 18.7333C22.8015 17.3856 24.8703 16.6538 27 16.6538C29.1297 16.6538 31.1985 17.3856 32.8783 18.7333C34.5581 20.081 35.7528 21.9674 36.2729 24.0934C36.7931 26.2194 36.6089 28.4632 35.7496 30.4692C34.8903 32.4752 33.4051 34.1285 31.5294 35.167L32.0331 36.1306C33.7243 35.1961 35.1376 33.8069 36.1224 32.1108C37.1071 30.4148 37.6265 28.4755 37.625 26.4995Z" fill="white"/>
<path d="M28.5938 24.75V24.5859C28.5859 24.2753 28.4769 23.9765 28.2842 23.7373C28.0915 23.4982 27.8263 23.3327 27.5312 23.2674V22.6719H26.4688V23.2674C26.1737 23.3327 25.9085 23.4982 25.7158 23.7373C25.5231 23.9765 25.4141 24.2753 25.4062 24.5859C25.4189 24.9603 25.575 25.3144 25.8405 25.5706C26.106 25.8268 26.4593 25.9643 26.8231 25.9531H27.1769C27.3687 25.9531 27.5312 26.0784 27.5312 26.2266C27.5312 26.3748 27.3687 26.5 27.1769 26.5H26.8231C26.6313 26.5 26.4688 26.3748 26.4688 26.2266V26.0625H25.4062V26.2266C25.4141 26.5372 25.5231 26.836 25.7158 27.0752C25.9085 27.3143 26.1737 27.4798 26.4688 27.5451V28.1406H27.5312V27.5451C27.8263 27.4798 28.0915 27.3143 28.2842 27.0752C28.4769 26.836 28.5859 26.5372 28.5938 26.2266C28.5811 25.8522 28.425 25.4981 28.1595 25.2419C27.894 24.9857 27.5407 24.8482 27.1769 24.8594H26.8231C26.6313 24.8594 26.4688 24.7341 26.4688 24.5859C26.4688 24.4377 26.6313 24.3125 26.8231 24.3125H27.1769C27.3687 24.3125 27.5312 24.4377 27.5312 24.5859V24.75H28.5938ZM28.879 36.8004C29.4223 36.3923 29.8262 35.8177 30.0331 35.1589C30.2399 34.5001 30.239 33.7909 30.0304 33.1326C29.8219 32.4744 29.4165 31.9009 28.8722 31.4943C28.3279 31.0876 27.6726 30.8686 27 30.8686C26.3274 30.8686 25.6721 31.0876 25.1278 31.4943C24.5835 31.9009 24.1781 32.4744 23.9696 33.1326C23.761 33.7909 23.7601 34.5001 23.9669 35.1589C24.1738 35.8177 24.5777 36.3923 25.121 36.8004C24.4102 37.161 23.8115 37.7191 23.3926 38.4115C22.9736 39.1038 22.7511 39.903 22.75 40.7188V42.3594C22.75 42.5044 22.806 42.6435 22.9056 42.7461C23.0052 42.8486 23.1404 42.9062 23.2812 42.9062H30.7188C30.8596 42.9062 30.9948 42.8486 31.0944 42.7461C31.194 42.6435 31.25 42.5044 31.25 42.3594V40.7188C31.2489 39.903 31.0264 39.1038 30.6074 38.4115C30.1885 37.7191 29.5898 37.161 28.879 36.8004ZM24.875 34.1562C24.875 33.7236 24.9996 33.3007 25.2331 32.9409C25.4666 32.5812 25.7985 32.3008 26.1868 32.1353C26.5751 31.9697 27.0024 31.9264 27.4146 32.0108C27.8268 32.0952 28.2054 32.3035 28.5026 32.6095C28.7998 32.9154 29.0022 33.3052 29.0842 33.7295C29.1662 34.1538 29.1241 34.5937 28.9632 34.9934C28.8024 35.3931 28.53 35.7347 28.1806 35.9751C27.8311 36.2155 27.4203 36.3438 27 36.3438C26.4364 36.3438 25.8959 36.1133 25.4974 35.703C25.0989 35.2928 24.875 34.7364 24.875 34.1562ZM30.1875 41.8125H23.8125V40.7188C23.8125 39.8485 24.1483 39.0139 24.7461 38.3986C25.3439 37.7832 26.1546 37.4375 27 37.4375C27.8454 37.4375 28.6561 37.7832 29.2539 38.3986C29.8517 39.0139 30.1875 39.8485 30.1875 40.7188V41.8125Z" fill="white"/>
</svg>
