<svg width="54" height="54" viewBox="0 0 54 54" fill="none" xmlns="http://www.w3.org/2000/svg">
<circle cx="27" cy="27" r="27" fill="#41447B"/>
<path d="M20.2351 18.3069C17.8773 17.8197 17.6176 17.5513 17.146 15.1159C17.1245 15.0064 17.067 14.9079 16.9833 14.8372C16.8996 14.7665 16.7948 14.7279 16.6866 14.7279C16.5785 14.7279 16.4737 14.7665 16.39 14.8372C16.3063 14.9079 16.2488 15.0064 16.2273 15.1159C15.7585 17.5523 15.496 17.8197 13.1391 18.3069C13.0332 18.3292 12.9379 18.3886 12.8695 18.4751C12.8011 18.5616 12.7637 18.6699 12.7637 18.7816C12.7637 18.8934 12.8011 19.0017 12.8695 19.0882C12.9379 19.1747 13.0332 19.2341 13.1391 19.2563C15.497 19.7407 15.7566 20.011 16.2273 22.4474C16.2488 22.5569 16.3063 22.6553 16.39 22.726C16.4737 22.7967 16.5785 22.8354 16.6866 22.8354C16.7948 22.8354 16.8996 22.7967 16.9833 22.726C17.067 22.6553 17.1245 22.5569 17.146 22.4474C17.6148 20.011 17.8773 19.7436 20.2341 19.2563C20.3401 19.2341 20.4354 19.1747 20.5038 19.0882C20.5722 19.0017 20.6096 18.8934 20.6096 18.7816C20.6096 18.6699 20.5722 18.5616 20.5038 18.4751C20.4354 18.3886 20.3401 18.3292 20.2341 18.3069H20.2351ZM16.6866 20.4983C16.5539 20.1005 16.3352 19.7392 16.0472 19.4417C15.7592 19.1443 15.4095 18.9186 15.0245 18.7816C15.4095 18.6447 15.7592 18.419 16.0472 18.1215C16.3352 17.8241 16.5539 17.4628 16.6866 17.065C16.8194 17.4628 17.038 17.8241 17.326 18.1215C17.614 18.419 17.9638 18.6447 18.3488 18.7816C17.9638 18.9186 17.614 19.1443 17.326 19.4417C17.038 19.7392 16.8194 20.1005 16.6866 20.4983ZM26.0991 18.7429C26.1757 18.8222 26.2765 18.8716 26.3844 18.8827C26.4922 18.8938 26.6005 18.866 26.6907 18.8039C28.6866 17.4254 29.0616 17.4254 31.0585 18.8029C31.1487 18.8647 31.2567 18.8923 31.3643 18.8812C31.4719 18.87 31.5725 18.8207 31.6489 18.7417C31.7254 18.6627 31.7731 18.5588 31.7839 18.4476C31.7947 18.3364 31.768 18.2247 31.7082 18.1316C30.3741 16.0691 30.3741 15.6816 31.7082 13.6192C31.768 13.526 31.7947 13.4144 31.7839 13.3032C31.7731 13.192 31.7254 13.0881 31.6489 13.0091C31.5725 12.93 31.4719 12.8808 31.3643 12.8696C31.2567 12.8584 31.1487 12.8861 31.0585 12.9478C29.0616 14.3254 28.6866 14.3254 26.6898 12.9478C26.5996 12.8861 26.4916 12.8584 26.384 12.8696C26.2764 12.8808 26.1758 12.93 26.0993 13.0091C26.0229 13.0881 25.9752 13.192 25.9644 13.3032C25.9536 13.4144 25.9803 13.526 26.0401 13.6192C27.3741 15.6816 27.3741 16.0691 26.0401 18.1316C25.98 18.2248 25.9531 18.3367 25.9638 18.4482C25.9746 18.5596 26.0224 18.6638 26.0991 18.7429ZM27.6995 14.6615C28.0656 14.8456 28.4674 14.9412 28.8746 14.9412C29.2818 14.9412 29.6836 14.8456 30.0498 14.6615C29.8713 15.0396 29.7785 15.4547 29.7785 15.8754C29.7785 16.296 29.8713 16.7112 30.0498 17.0892C29.6837 16.9049 29.2818 16.8092 28.8746 16.8092C28.4674 16.8092 28.0655 16.9049 27.6995 17.0892C27.8779 16.7112 27.9707 16.296 27.9707 15.8754C27.9707 15.4547 27.8779 15.0396 27.6995 14.6615ZM20.3991 28.5079C20.3225 28.4287 20.2216 28.3795 20.1138 28.3686C20.0059 28.3576 19.8977 28.3856 19.8076 28.4478C17.8116 29.8254 17.4366 29.8254 15.4398 28.4478C15.3496 28.3861 15.2416 28.3584 15.134 28.3696C15.0264 28.3808 14.9258 28.43 14.8493 28.5091C14.7729 28.5881 14.7252 28.692 14.7144 28.8032C14.7036 28.9144 14.7303 29.026 14.7901 29.1192C16.1241 31.1816 16.1241 31.5691 14.7901 33.6316C14.7303 33.7247 14.7036 33.8364 14.7144 33.9476C14.7252 34.0588 14.7729 34.1627 14.8493 34.2417C14.9258 34.3207 15.0264 34.37 15.134 34.3812C15.2416 34.3923 15.3496 34.3647 15.4398 34.3029C17.4366 32.9254 17.8116 32.9254 19.8085 34.3029C19.8987 34.3647 20.0067 34.3923 20.1143 34.3812C20.2219 34.37 20.3225 34.3207 20.3989 34.2417C20.4754 34.1627 20.5231 34.0588 20.5339 33.9476C20.5447 33.8364 20.518 33.7247 20.4582 33.6316C19.1241 31.5691 19.1241 31.1816 20.4582 29.1192C20.5183 29.0259 20.5452 28.9141 20.5345 28.8026C20.5237 28.6912 20.4759 28.587 20.3991 28.5079ZM18.7988 32.5892C18.4302 32.4131 18.0302 32.3178 17.6241 32.3093C17.2181 32.3178 16.8181 32.4131 16.4495 32.5892C16.6279 32.2112 16.7207 31.796 16.7207 31.3754C16.7207 30.9547 16.6279 30.5396 16.4495 30.1615C16.8156 30.3456 17.2174 30.4412 17.6246 30.4412C18.0318 30.4412 18.4336 30.3456 18.7998 30.1615C18.6211 30.5395 18.5282 30.9546 18.5281 31.3753C18.5279 31.7959 18.6205 32.2111 18.7988 32.5892ZM32.9288 26.2158C33.0054 26.2951 33.1062 26.3445 33.2141 26.3556C33.3219 26.3668 33.4302 26.3389 33.5204 26.2768C35.2745 25.0698 35.5979 25.0698 37.352 26.2768C37.4421 26.3386 37.5501 26.3662 37.6577 26.3551C37.7653 26.3439 37.8659 26.2946 37.9424 26.2156C38.0189 26.1366 38.0665 26.0327 38.0773 25.9215C38.0881 25.8103 38.0614 25.6987 38.0016 25.6055C36.8316 23.793 36.8316 23.4597 38.0016 21.6472C38.0614 21.554 38.0881 21.4424 38.0773 21.3312C38.0665 21.22 38.0189 21.1161 37.9424 21.0371C37.8659 20.9581 37.7653 20.9088 37.6577 20.8976C37.5501 20.8865 37.4421 20.9141 37.352 20.9758C35.5979 22.1829 35.2745 22.1829 33.5204 20.9758C33.4302 20.9141 33.3222 20.8865 33.2146 20.8976C33.107 20.9088 33.0064 20.9581 32.93 21.0371C32.8535 21.1161 32.8058 21.22 32.795 21.3312C32.7842 21.4424 32.811 21.554 32.8707 21.6472C34.0407 23.4597 34.0407 23.793 32.8707 25.6055C32.8109 25.6987 32.7841 25.8103 32.7948 25.9216C32.8056 26.0328 32.8533 26.1368 32.9298 26.2158H32.9288ZM34.487 22.645C34.7863 22.7797 35.1092 22.8493 35.4357 22.8493C35.7622 22.8493 36.0851 22.7797 36.3845 22.645C36.2532 22.9539 36.1854 23.2876 36.1854 23.6249C36.1854 23.9622 36.2532 24.2959 36.3845 24.6048C36.0853 24.4694 35.7623 24.3996 35.4357 24.3996C35.1091 24.3996 34.7861 24.4694 34.487 24.6048C34.6183 24.296 34.6863 23.9623 34.6864 23.625C34.6866 23.2877 34.619 22.954 34.4879 22.645H34.487ZM40.9679 37.8243L28.3716 24.8092L26.3832 22.7535C26.1656 22.5285 25.9072 22.3501 25.6228 22.2283C25.3384 22.1066 25.0335 22.0439 24.7257 22.0439C24.4179 22.0439 24.113 22.1066 23.8286 22.2283C23.5443 22.3501 23.2859 22.5285 23.0682 22.7535L22.4054 23.4384C21.966 23.8926 21.7192 24.5085 21.7192 25.1507C21.7192 25.7929 21.966 26.4088 22.4054 26.8629L24.3938 28.9186L36.9901 41.9348C37.2077 42.1597 37.4661 42.3382 37.7505 42.4599C38.0349 42.5817 38.3397 42.6443 38.6476 42.6443C38.9554 42.6443 39.2602 42.5817 39.5446 42.4599C39.829 42.3382 40.0874 42.1597 40.3051 41.9348L40.9679 41.2498C41.4073 40.7957 41.6541 40.1798 41.6541 39.5376C41.6541 38.8954 41.4073 38.2795 40.9679 37.8253V37.8243ZM23.0691 26.179C22.8055 25.9065 22.6574 25.537 22.6574 25.1516C22.6574 24.7663 22.8055 24.3968 23.0691 24.1243L23.732 23.4394C23.8625 23.3043 24.0176 23.1972 24.1883 23.1241C24.359 23.0511 24.5419 23.0134 24.7266 23.0134C24.9114 23.0134 25.0943 23.0511 25.265 23.1241C25.4357 23.1972 25.5907 23.3043 25.7213 23.4394L27.3741 25.1512L24.7266 27.8879L23.0691 26.179ZM40.3051 40.5649L39.6423 41.2498C39.5117 41.3849 39.3566 41.492 39.1859 41.5651C39.0153 41.6382 38.8323 41.6758 38.6476 41.6758C38.4628 41.6758 38.2799 41.6382 38.1092 41.5651C37.9386 41.492 37.7835 41.3849 37.6529 41.2498L25.3895 28.5767L28.0407 25.8361L40.3041 38.5093C40.5678 38.7818 40.7159 39.1513 40.7159 39.5366C40.7159 39.9219 40.5678 40.2915 40.3041 40.564L40.3051 40.5649Z" fill="white"/>
</svg>
