<svg width="54" height="54" viewBox="0 0 54 54" fill="none" xmlns="http://www.w3.org/2000/svg">
<circle cx="27" cy="27" r="27" fill="#41447B"/>
<path d="M38.6866 30.3395L36.5616 32.8986L31.6744 37.9294C31.5447 38.063 31.3836 38.1597 31.2067 38.2101C31.0299 38.2605 30.8434 38.2629 30.6654 38.2171L22.968 36.2362C22.8237 36.199 22.6885 36.1311 22.5712 36.0367L15.3116 30.1929M41.9694 28.6498L38.6866 30.3395L34.4366 21.9611L37.7528 20.2542C38.0019 20.126 38.29 20.1036 38.5551 20.1919C38.8201 20.2801 39.0408 20.472 39.1698 20.7262L42.436 27.1653C42.5013 27.294 42.5411 27.4349 42.5529 27.5796C42.5648 27.7243 42.5485 27.8701 42.5051 28.0083C42.4616 28.1465 42.3919 28.2744 42.2999 28.3845C42.2079 28.4947 42.0956 28.5848 41.9694 28.6498V28.6498ZM15.3116 30.1929L12.0287 28.5033C11.9025 28.4383 11.7902 28.3481 11.6982 28.238C11.6062 28.1278 11.5365 27.9999 11.493 27.8617C11.4496 27.7235 11.4333 27.5778 11.4452 27.4331C11.457 27.2883 11.4968 27.1475 11.5621 27.0187L14.8283 20.5797C14.9573 20.3255 15.178 20.1336 15.443 20.0453C15.7081 19.957 15.9962 19.9794 16.2453 20.1077L19.5616 21.8145L15.3116 30.1929Z" stroke="white" stroke-width="2" stroke-linecap="round" stroke-linejoin="round"/>
<path d="M36.5621 32.8994L30.7184 28.5244L29.0184 29.8369C28.2827 30.4049 27.388 30.7119 26.4684 30.7119C25.5488 30.7119 24.654 30.4049 23.9184 29.8369L23.1984 29.2811C23.0767 29.1871 22.9759 29.0672 22.9031 28.9296C22.8302 28.792 22.7869 28.6399 22.7761 28.4836C22.7653 28.3273 22.7873 28.1704 22.8405 28.0236C22.8937 27.8768 22.977 27.7435 23.0846 27.6327L28.2822 22.2823C28.3808 22.1807 28.498 22.1001 28.6269 22.0452C28.7558 21.9902 28.8939 21.9619 29.0335 21.9619H34.4371" stroke="white" stroke-width="2" stroke-linecap="round" stroke-linejoin="round"/>
<path d="M24.875 41.102L20.8721 40.0718C20.7097 40.03 20.5591 39.9493 20.4328 39.8362L17.4375 37.1561M19.6388 21.8148L26.4547 19.7693C26.6982 19.6962 26.959 19.7152 27.1901 19.8228L31.7812 21.9614L19.6388 21.8148Z" stroke="white" stroke-width="2" stroke-linecap="round" stroke-linejoin="round"/>
</svg>
