<svg width="54" height="54" viewBox="0 0 54 54" fill="none" xmlns="http://www.w3.org/2000/svg">
<circle cx="27" cy="27" r="27" fill="#41447B"/>
<g clip-path="url(#clip0_758_193)">
<path d="M42.5 36.8125H42V23.2664C42.5495 22.2422 42.8812 21.109 42.973 19.9423C43.0648 18.7756 42.9147 17.6022 42.5326 16.5C42.1504 15.3977 41.5451 14.3921 40.7568 13.5499C39.9685 12.7077 39.0153 12.0483 37.9607 11.6155C36.9061 11.1827 35.7742 10.9864 34.6403 11.0398C33.5064 11.0932 32.3966 11.395 31.3846 11.9251C30.3726 12.4551 29.4817 13.2014 28.7711 14.1141C28.0604 15.0269 27.5465 16.0852 27.2633 17.2188H14.5C13.8372 17.2196 13.2018 17.4914 12.7331 17.9748C12.2644 18.4581 12.0008 19.1134 12 19.7969V36.8125H11.5C11.4343 36.8125 11.3693 36.8258 11.3086 36.8517C11.2479 36.8776 11.1928 36.9156 11.1464 36.9634C11.0999 37.0113 11.0631 37.0682 11.038 37.1308C11.0129 37.1933 11 37.2604 11 37.3281V39.3906C11.0008 40.0741 11.2644 40.7294 11.7331 41.2128C12.2018 41.6961 12.8372 41.968 13.5 41.9688H40.5C41.1628 41.968 41.7982 41.6961 42.2669 41.2128C42.7356 40.7294 42.9992 40.0741 43 39.3906V37.3281C43 37.2604 42.9871 37.1933 42.962 37.1308C42.9369 37.0682 42.9001 37.0113 42.8536 36.9634C42.8072 36.9156 42.7521 36.8776 42.6914 36.8517C42.6307 36.8258 42.5657 36.8125 42.5 36.8125ZM35 12.0625C36.4735 12.0606 37.9098 12.5389 39.104 13.4289C40.2982 14.319 41.1892 15.5754 41.6497 17.0188C42.1103 18.4622 42.1169 20.0187 41.6685 21.4661C41.2202 22.9136 40.3398 24.1779 39.1532 25.0787L39.1457 25.0845C38.3418 25.6991 37.4191 26.1282 36.4403 26.3427C35.4615 26.5573 34.4493 26.5523 33.4725 26.3281C32.4957 26.1038 31.5771 25.6656 30.779 25.0431C29.9808 24.4206 29.3218 23.6285 28.8466 22.7203C28.8369 22.6941 28.825 22.6689 28.8112 22.6448C28.3624 21.7678 28.0951 20.8042 28.0263 19.8151C28.0265 19.8087 28.0298 19.8034 28.0298 19.7969C28.0298 19.7861 28.0244 19.777 28.0238 19.7664C28.0134 19.6053 28 19.445 28 19.2813C28.0021 17.3674 28.7402 15.5325 30.0525 14.1792C31.3649 12.8259 33.1441 12.0647 35 12.0625ZM29.7263 25.4688H18.5C18.3674 25.4687 18.2403 25.4143 18.1465 25.3176C18.0528 25.221 18.0001 25.0899 18 24.9531V23.9219C18.0001 23.7852 18.0528 23.6541 18.1465 23.5574C18.2403 23.4607 18.3674 23.4064 18.5 23.4063H28.0825C28.5188 24.1808 29.074 24.8773 29.7263 25.4688ZM27.589 22.375H18.5C18.1023 22.3755 17.721 22.5386 17.4398 22.8286C17.1586 23.1186 17.0004 23.5118 17 23.9219V24.9531C17.0004 25.3633 17.1586 25.7564 17.4398 26.0464C17.721 26.3364 18.1023 26.4996 18.5 26.5H31.1356C32.341 27.1905 33.6999 27.5457 35.0787 27.5308C36.4575 27.5159 37.8089 27.1314 39 26.415V34.75H15V20.3125H27.0695C27.1547 21.0204 27.3294 21.7138 27.589 22.375ZM13 19.7969C13.0004 19.3868 13.1586 18.9936 13.4398 18.7036C13.721 18.4136 14.1023 18.2505 14.5 18.25H27.0695C27.0254 18.5919 27.0022 18.9363 27 19.2813H14.5C14.4343 19.2812 14.3693 19.2945 14.3086 19.3204C14.2479 19.3463 14.1928 19.3843 14.1464 19.4322C14.0999 19.4801 14.0631 19.5369 14.038 19.5995C14.0129 19.6621 14 19.7292 14 19.7969V35.2656C14 35.3334 14.0129 35.4004 14.038 35.463C14.0631 35.5256 14.0999 35.5824 14.1464 35.6303C14.1928 35.6782 14.2479 35.7162 14.3086 35.7421C14.3693 35.768 14.4343 35.7813 14.5 35.7813H39.5C39.5657 35.7813 39.6307 35.768 39.6914 35.7421C39.7521 35.7162 39.8072 35.6782 39.8536 35.6303C39.9001 35.5824 39.9369 35.5256 39.962 35.463C39.9871 35.4004 40 35.3334 40 35.2656V25.7111C40.3603 25.4109 40.6949 25.0792 41 24.7198V36.8125H32.5C32.1023 36.813 31.721 36.9761 31.4398 37.2661C31.1586 37.5561 31.0004 37.9493 31 38.3594C30.9999 38.4961 30.9472 38.6272 30.8535 38.7239C30.7597 38.8206 30.6326 38.8749 30.5 38.875H23.5C23.3674 38.8749 23.2403 38.8206 23.1465 38.7239C23.0528 38.6272 23.0001 38.4961 23 38.3594C22.9996 37.9493 22.8414 37.5561 22.5602 37.2661C22.279 36.9761 21.8977 36.813 21.5 36.8125H13V19.7969ZM42 39.3906C41.9996 39.8008 41.8414 40.1939 41.5602 40.4839C41.279 40.7739 40.8977 40.9371 40.5 40.9375H13.5C13.1023 40.9371 12.721 40.7739 12.4398 40.4839C12.1586 40.1939 12.0004 39.8008 12 39.3906V37.8438H21.5C21.6326 37.8438 21.7597 37.8982 21.8535 37.9949C21.9472 38.0916 21.9999 38.2227 22 38.3594C22.0004 38.7695 22.1586 39.1627 22.4398 39.4527C22.721 39.7427 23.1023 39.9058 23.5 39.9063H30.5C30.8977 39.9058 31.279 39.7427 31.5602 39.4527C31.8414 39.1627 31.9996 38.7695 32 38.3594C32.0001 38.2227 32.0528 38.0916 32.1465 37.9949C32.2403 37.8982 32.3674 37.8438 32.5 37.8438H42V39.3906ZM26.5 31.6563H17.5C17.3674 31.6563 17.2402 31.7106 17.1464 31.8073C17.0527 31.904 17 32.0351 17 32.1719C17 32.3086 17.0527 32.4398 17.1464 32.5365C17.2402 32.6332 17.3674 32.6875 17.5 32.6875H26.5C26.6326 32.6875 26.7598 32.6332 26.8536 32.5365C26.9473 32.4398 27 32.3086 27 32.1719C27 32.0351 26.9473 31.904 26.8536 31.8073C26.7598 31.7106 26.6326 31.6563 26.5 31.6563ZM34.813 20.816C34.876 20.8241 34.9394 20.8281 35.0029 20.8281C35.3125 20.8278 35.6142 20.7284 35.8667 20.5437C36.1191 20.359 36.3097 20.098 36.4122 19.7969H37.25C37.3826 19.7969 37.5098 19.7426 37.6036 19.6459C37.6973 19.5492 37.75 19.418 37.75 19.2813C37.75 19.1445 37.6973 19.0134 37.6036 18.9167C37.5098 18.82 37.3826 18.7656 37.25 18.7656H36.4076C36.3366 18.5474 36.2178 18.3491 36.0604 18.1859C35.903 18.0228 35.7112 17.8992 35.5 17.8248V16.4453C35.5 16.3086 35.4473 16.1774 35.3536 16.0807C35.2598 15.984 35.1326 15.9297 35 15.9297C34.8674 15.9297 34.7402 15.984 34.6464 16.0807C34.5527 16.1774 34.5 16.3086 34.5 16.4453V17.8304C34.1822 17.9462 33.9116 18.1691 33.7321 18.4633C33.5525 18.7574 33.4746 19.1054 33.5108 19.451C33.547 19.7965 33.6953 20.1193 33.9317 20.3671C34.168 20.6148 34.4786 20.773 34.813 20.816ZM34.6934 18.8744C34.7805 18.8038 34.8882 18.7655 34.999 18.7656C35.0202 18.7657 35.0414 18.7671 35.0625 18.7697C35.1775 18.7844 35.284 18.8398 35.3638 18.9265C35.4436 19.0131 35.4918 19.1256 35.5002 19.2448C35.5086 19.364 35.4766 19.4825 35.4097 19.5802C35.3429 19.6778 35.2453 19.7485 35.1335 19.7802C35.0218 19.8119 34.9028 19.8026 34.797 19.754C34.6911 19.7054 34.6049 19.6204 34.5529 19.5136C34.501 19.4068 34.4866 19.2846 34.5122 19.1681C34.5378 19.0515 34.6018 18.9477 34.6933 18.8744H34.6934ZM17.5 29.5938H28.5C28.6326 29.5938 28.7598 29.5394 28.8536 29.4427C28.9473 29.346 29 29.2149 29 29.0781C29 28.9414 28.9473 28.8102 28.8536 28.7135C28.7598 28.6168 28.6326 28.5625 28.5 28.5625H17.5C17.3674 28.5625 17.2402 28.6168 17.1464 28.7135C17.0527 28.8102 17 28.9414 17 29.0781C17 29.2149 17.0527 29.346 17.1464 29.4427C17.2402 29.5394 17.3674 29.5938 17.5 29.5938ZM35 25.4688C36.1867 25.4688 37.3467 25.1059 38.3334 24.426C39.3201 23.7461 40.0892 22.7797 40.5433 21.6491C40.9974 20.5185 41.1162 19.2744 40.8847 18.0741C40.6532 16.8739 40.0818 15.7714 39.2426 14.906C38.4035 14.0407 37.3344 13.4514 36.1705 13.2126C35.0067 12.9739 33.8003 13.0964 32.7039 13.5648C31.6075 14.0331 30.6705 14.8261 30.0112 15.8437C29.3519 16.8612 29 18.0575 29 19.2813C29.0017 20.9217 29.6344 22.4945 30.7593 23.6545C31.8841 24.8145 33.4092 25.467 35 25.4688ZM35 14.125C35.9889 14.125 36.9556 14.4274 37.7779 14.994C38.6001 15.5606 39.241 16.3659 39.6194 17.308C39.9978 18.2502 40.0969 19.287 39.9039 20.2872C39.711 21.2874 39.2348 22.2062 38.5355 22.9273C37.8363 23.6484 36.9454 24.1395 35.9755 24.3384C35.0055 24.5374 34.0002 24.4353 33.0866 24.045C32.173 23.6547 31.3921 22.9939 30.8427 22.1459C30.2932 21.298 30 20.3011 30 19.2813C30.0016 17.9142 30.5288 16.6036 31.4662 15.637C32.4035 14.6704 33.6744 14.1266 35 14.125Z" fill="white"/>
</g>
<defs>
<clipPath id="clip0_758_193">
<rect width="32" height="33" fill="white" transform="translate(11 10)"/>
</clipPath>
</defs>
</svg>
