<svg width="200" height="200" viewBox="0 0 200 200" fill="none" xmlns="http://www.w3.org/2000/svg">
<path d="M155.109 0H44.8909C20.0983 0 0 20.0983 0 44.8909V155.109C0 179.902 20.0983 200 44.8909 200H155.109C179.902 200 200 179.902 200 155.109V44.8909C200 20.0983 179.902 0 155.109 0Z" fill="#0B86CA"/>
<path d="M55.4213 83.1309H76.2041V150.19H55.4213V83.1309ZM66.0205 49.8091C68.4016 49.8091 70.7294 50.5144 72.7101 51.8358C74.6909 53.1573 76.2359 55.0358 77.1502 57.2344C78.0646 59.4329 78.3073 61.853 77.8478 64.1894C77.3883 66.5257 76.2471 68.6736 74.5682 70.3622C72.8894 72.0507 70.748 73.2041 68.4143 73.677C66.0807 74.1499 63.6592 73.9211 61.4555 73.0194C59.2517 72.1176 57.3644 70.5834 56.0316 68.6103C54.6988 66.6371 53.9802 64.3135 53.9665 61.9324C53.9574 60.3436 54.2624 58.7687 54.8641 57.2982C55.4658 55.8278 56.3522 54.4908 57.4725 53.3641C58.5927 52.2374 59.9246 51.3433 61.3916 50.7332C62.8586 50.1231 64.4317 49.8091 66.0205 49.8091ZM89.5051 83.1309H109.526V92.2753C111.53 88.8551 114.425 86.0433 117.902 84.14C121.38 82.2366 125.309 81.3132 129.27 81.4682C150.052 81.4682 154.278 95.3235 154.278 113.405V150.19H133.495V117.769C133.495 110.01 133.495 99.965 122.688 99.965C111.881 99.965 110.219 108.417 110.219 117.145V150.329H89.4359L89.5051 83.1309Z" fill="white"/>
</svg>
