<svg width="884" height="221" viewBox="0 0 884 221" fill="none" xmlns="http://www.w3.org/2000/svg">
<g clip-path="url(#clip0)">
<rect width="884" height="221" fill="white"/>
<path d="M396.15 112.5C396.15 106.32 397.53 100.8 400.29 95.94C403.11 91.02 406.92 87.21 411.72 84.51C416.58 81.75 422.01 80.37 428.01 80.37C435.03 80.37 441.18 82.17 446.46 85.77C451.74 89.37 455.43 94.35 457.53 100.71H443.04C441.6 97.71 439.56 95.46 436.92 93.96C434.34 92.46 431.34 91.71 427.92 91.71C424.26 91.71 420.99 92.58 418.11 94.32C415.29 96 413.07 98.4 411.45 101.52C409.89 104.64 409.11 108.3 409.11 112.5C409.11 116.64 409.89 120.3 411.45 123.48C413.07 126.6 415.29 129.03 418.11 130.77C420.99 132.45 424.26 133.29 427.92 133.29C431.34 133.29 434.34 132.54 436.92 131.04C439.56 129.48 441.6 127.2 443.04 124.2H457.53C455.43 130.62 451.74 135.63 446.46 139.23C441.24 142.77 435.09 144.54 428.01 144.54C422.01 144.54 416.58 143.19 411.72 140.49C406.92 137.73 403.11 133.92 400.29 129.06C397.53 124.2 396.15 118.68 396.15 112.5ZM500.692 144L486.832 119.52H480.892V144H468.292V81.18H491.872C496.732 81.18 500.872 82.05 504.292 83.79C507.712 85.47 510.262 87.78 511.942 90.72C513.682 93.6 514.552 96.84 514.552 100.44C514.552 104.58 513.352 108.33 510.952 111.69C508.552 114.99 504.982 117.27 500.242 118.53L515.272 144H500.692ZM480.892 110.07H491.422C494.842 110.07 497.392 109.26 499.072 107.64C500.752 105.96 501.592 103.65 501.592 100.71C501.592 97.83 500.752 95.61 499.072 94.05C497.392 92.43 494.842 91.62 491.422 91.62H480.892V110.07ZM538.548 91.35V107.1H559.698V117.09H538.548V133.74H562.398V144H525.948V81.09H562.398V91.35H538.548ZM616.599 81.18V91.35H599.859V144H587.259V91.35H570.519V81.18H616.599ZM694.282 81.18V144H681.682V103.14L664.852 144H655.312L638.392 103.14V144H625.792V81.18H640.102L660.082 127.89L680.062 81.18H694.282ZM745.259 132.03H720.239L716.099 144H702.869L725.459 81.09H740.129L762.719 144H749.399L745.259 132.03ZM741.839 121.95L732.749 95.67L723.659 121.95H741.839ZM803.563 144L789.703 119.52H783.763V144H771.163V81.18H794.743C799.603 81.18 803.743 82.05 807.163 83.79C810.583 85.47 813.133 87.78 814.813 90.72C816.553 93.6 817.423 96.84 817.423 100.44C817.423 104.58 816.223 108.33 813.823 111.69C811.423 114.99 807.853 117.27 803.113 118.53L818.143 144H803.563ZM783.763 110.07H794.293C797.713 110.07 800.263 109.26 801.943 107.64C803.623 105.96 804.463 103.65 804.463 100.71C804.463 97.83 803.623 95.61 801.943 94.05C800.263 92.43 797.713 91.62 794.293 91.62H783.763V110.07ZM864.279 144L841.419 116.01V144H828.819V81.18H841.419V109.35L864.279 81.18H879.489L853.569 112.32L880.209 144H864.279Z" fill="black"/>
<path d="M337.782 0.156114L247.504 90.4345L188.433 32.2551C186.501 30.3232 184.569 28.5399 182.563 26.831C139.244 -10.6922 73.4116 -8.83458 32.3219 32.2551C11.4427 53.1343 0 80.8494 0 110.348C0 139.846 11.517 167.561 32.3219 188.44C53.1268 209.32 80.9162 220.762 110.415 220.762C139.913 220.762 167.628 209.245 188.507 188.44L247.727 129.221L337.708 220.762H365.2V0.00749818L337.782 0.156114ZM168.965 168.899C153.287 184.577 132.483 193.196 110.34 193.196C88.1979 193.196 67.393 184.577 51.715 168.899C36.037 153.221 27.4179 132.416 27.4179 110.273C27.4179 88.1311 36.037 67.3262 51.715 51.6482C67.393 35.9702 88.1979 27.3511 110.34 27.3511C129.733 27.3511 148.161 33.9641 163.021 46.2241C165.102 47.9331 167.108 49.7906 169.04 51.7225L228.037 109.828L168.965 168.899ZM267.12 109.679L337.634 39.1653V179.152L267.12 109.679Z" fill="#41447B"/>
<path d="M332 171L338 175.017V225L332 220.537V171Z" fill="white"/>
<path d="M187.787 13L189.344 19.9282L155.924 53.3482L154.665 46.1217L187.787 13Z" fill="white"/>
<rect x="267.412" y="108.921" width="5.99115" height="30.037" transform="rotate(45 267.412 108.921)" fill="white"/>
<rect x="248.453" y="129.217" width="5.99115" height="28.1537" transform="rotate(135 248.453 129.217)" fill="white"/>
<path d="M365.105 0V220.755H337.613V179.145V39.1578L267.099 109.672L247.631 129.139L228.015 109.82L169.019 51.715C167.087 49.7831 165.08 47.9256 163 46.2166L182.542 26.6749C184.548 28.3838 186.48 30.2414 188.412 32.099L247.483 90.2784L337.761 0H365.105Z" fill="#B72851"/>
</g>
<defs>
<clipPath id="clip0">
<rect width="884" height="221" fill="white"/>
</clipPath>
</defs>
</svg>
