<svg width="348" height="349" viewBox="0 0 348 349" fill="none" xmlns="http://www.w3.org/2000/svg">
<g clip-path="url(#clip0)">
<path d="M297.288 50.7169C264.574 18.0307 221.074 0.0199426 174.728 0C79.2246 0 1.50409 77.5761 1.46586 172.928C1.45473 203.408 9.43094 233.161 24.5916 259.387L0.0112305 349L91.8595 324.953C117.165 338.733 145.658 345.994 174.654 346.006H174.727H174.728C270.216 346.006 347.948 268.416 347.989 173.068C348.005 126.856 329.998 83.4053 297.288 50.7169ZM174.728 316.798H174.672C148.827 316.784 123.482 309.856 101.376 296.758L96.1149 293.644L41.6103 307.913L56.1623 254.872L52.7346 249.435C38.3181 226.547 30.7074 200.098 30.7182 172.939C30.7499 93.6858 95.3483 29.2094 174.783 29.2094C213.249 29.2253 249.403 44.1959 276.593 71.3637C303.783 98.5312 318.745 134.647 318.734 173.056C318.7 252.312 254.099 316.798 174.728 316.798Z" fill="#E0E0E0"/>
<path d="M7.96484 339.057L31.4224 253.537C16.9506 228.509 9.34015 200.113 9.34928 171.031C9.38723 80.0367 83.5582 6.00635 174.691 6.00635C218.922 6.02629 260.436 23.2134 291.649 54.4073C322.868 85.6009 340.051 127.064 340.033 171.16C339.995 262.157 265.819 336.194 174.698 336.194C174.691 336.194 174.702 336.194 174.698 336.194H174.624C146.953 336.185 119.764 329.25 95.6158 316.109L7.96484 339.057Z" fill="url(#paint0_linear)"/>
<path fill-rule="evenodd" clip-rule="evenodd" d="M131.914 99.5119C128.708 92.3961 125.333 92.2537 122.284 92.1292C119.789 92.0223 116.934 92.0289 114.082 92.0289C111.229 92.0289 106.592 93.0995 102.671 97.3752C98.7481 101.651 87.6914 111.987 87.6914 133.009C87.6914 154.034 103.028 174.348 105.166 177.201C107.306 180.05 134.771 224.569 178.269 241.696C214.419 255.93 221.776 253.099 229.622 252.386C237.469 251.674 254.941 242.052 258.508 232.074C262.075 222.098 262.075 213.547 261.005 211.76C259.935 209.979 257.081 208.911 252.801 206.774C248.521 204.638 227.482 194.299 223.559 192.875C219.636 191.45 216.782 190.738 213.929 195.016C211.076 199.289 202.879 208.911 200.382 211.76C197.886 214.615 195.389 214.972 191.109 212.835C186.829 210.692 173.046 206.184 156.695 191.628C143.973 180.303 135.384 166.317 132.888 162.039C130.391 157.766 132.62 155.451 134.767 153.321C136.688 151.407 139.047 148.333 141.187 145.838C143.322 143.343 144.036 141.562 145.462 138.713C146.889 135.86 146.176 133.365 145.106 131.228C144.036 129.091 135.719 107.961 131.914 99.5119Z" fill="white"/>
<path d="M295.873 50.1675C263.535 17.8566 220.534 0.0529423 174.72 0.0327148C80.3128 0.0327148 3.48453 76.7183 3.44658 170.976C3.43546 201.106 11.3201 230.517 26.3066 256.442L2.00879 345.026L92.8027 321.255C117.818 334.877 145.984 342.055 174.647 342.066H174.719H174.72C269.112 342.066 345.951 265.367 345.992 171.114C346.007 125.433 328.207 82.4808 295.873 50.1675ZM174.72 313.194H174.665C149.116 313.18 124.062 306.332 102.21 293.385L97.0091 290.307L43.1302 304.411L57.515 251.979L54.1266 246.604C39.8757 223.98 32.3523 197.834 32.3634 170.987C32.3945 92.6436 96.2513 28.9073 174.774 28.9073C212.799 28.923 248.537 43.7218 275.416 70.5777C302.293 97.4335 317.084 133.134 317.073 171.103C317.039 249.449 253.18 313.194 174.72 313.194Z" fill="white"/>
</g>
<defs>
<linearGradient id="paint0_linear" x1="173.999" y1="339.057" x2="173.999" y2="6.0069" gradientUnits="userSpaceOnUse">
<stop stop-color="#20B038"/>
<stop offset="1" stop-color="#60D66A"/>
</linearGradient>
<clipPath id="clip0">
<rect width="348" height="349" fill="white"/>
</clipPath>
</defs>
</svg>
