<svg width="140" height="73" viewBox="0 0 140 73" fill="none" xmlns="http://www.w3.org/2000/svg">
<path d="M70 72.7601C108.66 72.7601 140 56.4722 140 36.38C140 16.2879 108.66 0 70 0C31.3401 0 0 16.2879 0 36.38C0 56.4722 31.3401 72.7601 70 72.7601Z" fill="#8993BE"/>
<path fill-rule="evenodd" clip-rule="evenodd" d="M19.6572 57.9213L27.3288 19.1476H45.0678C52.7388 19.6264 56.5746 23.4555 56.5746 30.1577C56.5746 41.6461 47.4653 48.3477 39.3141 47.8688H30.685L28.7671 57.9213H19.6572ZM32.6023 40.6889L34.9998 26.328H41.2325C44.5887 26.328 46.9857 27.764 46.9857 30.636C46.5066 38.7741 42.6708 40.2101 38.356 40.6889H32.6029H32.6023ZM54.7923 47.8688L62.4633 9.0957H71.5732L69.6553 19.1476H78.285C85.9565 19.6264 88.8331 23.4555 87.8744 28.2429L84.5182 47.8688H74.9293L78.2855 30.1577C78.7646 27.764 78.7646 26.328 75.409 26.328H68.217L63.9022 47.8688H54.7923ZM83.9041 57.9213L91.5751 19.1476H109.315C116.986 19.6264 120.822 23.4555 120.822 30.1577C120.822 41.6461 111.712 48.3477 103.562 47.8688H94.9313L93.0134 57.9213H83.9041ZM96.8486 40.6889L99.2461 26.328H105.479C108.836 26.328 111.233 27.764 111.233 30.636C110.753 38.7741 106.918 40.2101 102.603 40.6889H96.8492H96.8486Z" fill="#232531"/>
</svg>
