<svg width="75" height="75" viewBox="0 0 75 75" fill="none" xmlns="http://www.w3.org/2000/svg">
<path d="M68.2011 0H6.79893C3.04395 0 0 3.04395 0 6.79893V68.2011C0 71.9561 3.04395 75 6.79893 75H68.2011C71.9561 75 75 71.9561 75 68.2011V6.79893C75 3.04395 71.9561 0 68.2011 0Z" fill="#DC395F"/>
<path d="M25.0649 23.5968C27.5581 23.5968 29.6467 21.6427 29.6467 19.0815C29.6467 16.5222 27.5581 14.5684 25.0649 14.5684C22.5718 14.5684 20.4838 16.5222 20.4838 19.0815C20.4838 21.6424 22.5718 23.5968 25.0649 23.5968ZM15.5651 47.7726C15.2959 48.9181 15.1608 50.155 15.1608 51.164C15.1608 55.1399 17.3168 57.7792 21.8985 57.7792C25.6983 57.7792 28.7789 55.5228 30.997 51.8791L29.6426 57.3146H37.188L41.5005 40.018C42.5786 35.6387 44.6672 33.3655 47.8342 33.3655C50.327 33.3655 51.8766 34.9159 51.8766 37.4753C51.8766 38.2168 51.8092 39.0245 51.5396 39.9008L49.316 47.8511C48.9791 48.9966 48.8449 50.1427 48.8449 51.2199C48.8449 54.9943 51.0677 57.7549 55.7168 57.7549C59.6921 57.7549 62.8585 55.1958 64.6105 49.0643L61.6462 47.9199C60.1638 52.0276 58.8835 52.7703 57.8728 52.7703C56.862 52.7703 56.3229 52.0971 56.3229 50.7503C56.3229 50.1439 56.4583 49.4709 56.6599 48.6606L58.8164 40.915C59.3552 39.0963 59.5576 37.4835 59.5576 36.0017C59.5576 30.2073 56.0537 27.1833 51.8092 27.1833C47.8342 27.1833 43.7912 30.769 41.7703 34.5427L43.2521 27.7692H31.7314L30.1143 33.7353H35.5046L32.1853 47.0243C29.5787 52.8187 24.7907 52.9127 24.1898 52.7782C23.2031 52.5556 22.5721 52.1809 22.5721 50.8988C22.5721 50.1591 22.7068 49.0965 23.0437 47.8153L28.0975 27.7692H15.2959L13.6787 33.7353H19.0011L15.5654 47.7726" fill="white"/>
</svg>
