<svg width="61" height="83" viewBox="0 0 61 83" fill="none" xmlns="http://www.w3.org/2000/svg">
<g clip-path="url(#clip0)">
<path fill-rule="evenodd" clip-rule="evenodd" d="M0.412109 69.2004V29.886C0.412109 13.3804 13.883 0 30.5004 0C47.1177 0 60.5886 13.3804 60.5886 29.886C60.5886 46.1744 47.4696 59.4194 31.1545 59.765V59.7721C26.4581 59.7721 22.6513 55.9908 22.6513 51.326C22.6513 46.7048 26.3877 42.9504 31.0236 42.881V42.8698C38.006 42.5969 43.5822 36.8882 43.5822 29.886C43.5822 22.7097 37.7252 16.8921 30.5004 16.8921C23.2755 16.8921 17.4185 22.7097 17.4185 29.886V73.4157C17.4185 78.0805 13.6117 81.8617 8.91531 81.8617C7.16598 81.8645 5.45875 81.3289 4.02846 80.3284C6.47424 79.6185 8.26122 77.3741 8.26122 74.7151C8.26122 71.4858 5.62549 68.8678 2.37439 68.8678C1.68628 68.8678 1.02591 68.985 0.412109 69.2004ZM31.1545 57.1733C34.4056 57.1733 37.0413 54.5553 37.0413 51.326C37.0413 48.0968 34.4056 45.4787 31.1545 45.4787C27.9034 45.4787 25.2676 48.0968 25.2676 51.326C25.2676 54.5553 27.9034 57.1733 31.1545 57.1733Z" fill="url(#paint0_linear)"/>
</g>
<defs>
<linearGradient id="paint0_linear" x1="30.5004" y1="0" x2="30.5004" y2="51.2602" gradientUnits="userSpaceOnUse">
<stop stop-color="#D378E5"/>
<stop offset="1" stop-color="#7526C2"/>
</linearGradient>
<clipPath id="clip0">
<rect width="61" height="83" fill="white"/>
</clipPath>
</defs>
</svg>
