<svg width="87" height="63" viewBox="0 0 87 63" fill="none" xmlns="http://www.w3.org/2000/svg">
<path d="M87 30.0953V32.9075C86.9728 33.06 86.9384 33.2098 86.9205 33.3616C86.7723 34.5849 86.6763 35.8159 86.4716 37.03C85.8028 40.9761 84.3571 44.6439 82.2089 48.0353C78.9466 53.1843 74.5364 57.1107 68.9942 59.7921C65.7955 61.347 62.3466 62.3462 58.8005 62.7455C58.0129 62.8348 57.226 62.9149 56.4383 63H25.8744C25.7205 62.9719 25.5673 62.9269 25.4119 62.9177C22.33 62.7272 19.3648 62.0375 16.5386 60.8234C10.3856 58.18 5.79785 53.8958 2.79474 47.9987C1.46772 45.3976 0.608927 42.5908 0.256346 39.7023C0.169704 38.9999 0.0852099 38.2983 0 37.5967V34.8682C0.029358 34.7171 0.0744691 34.5659 0.0837778 34.4141C0.243457 31.7925 0.791234 29.2468 1.75575 26.8002C4.35143 20.2171 8.87615 15.3345 15.3063 12.1744C18.6423 10.5342 22.1982 9.6723 25.9174 9.48107C27.7383 9.38827 29.5578 9.4881 31.368 9.72643C31.5319 9.74823 31.7682 9.67652 31.8821 9.56192C34.4849 6.95157 37.4487 4.83123 40.7905 3.2241C44.032 1.66548 47.4433 0.660849 51.0343 0.258715C51.8792 0.163806 52.7263 0.0857698 53.5727 0H56.1784C56.3488 0.0260121 56.5199 0.0555394 56.6903 0.0752243C57.9814 0.222861 59.2796 0.315661 60.5584 0.525867C64.5483 1.1832 68.2624 2.58926 71.6995 4.67797C76.9696 7.88098 80.9859 12.2166 83.7298 17.6749C85.3167 20.8169 86.3355 24.2058 86.7408 27.6903C86.8339 28.4924 86.9134 29.2946 87 30.0953ZM38.3552 11.8988C38.4075 11.9663 38.4203 11.9979 38.4425 12.0085C40.2319 12.8744 41.9422 13.8898 43.5544 15.0435C43.6561 15.1159 43.9081 15.0856 44.0313 15.0097C48.4622 12.2531 53.2655 11.3019 58.4253 12.2004C63.4814 13.0806 67.5958 15.5609 70.7392 19.5225C74.2987 24.0057 75.6556 29.0752 74.6732 34.7157C74.0144 38.4959 72.4721 41.8873 69.8506 44.7282C65.0674 49.9075 59.0777 52.0496 52.0267 51.1427C47.686 50.5845 43.9389 48.746 40.8377 45.6689C36.8572 41.7214 32.8509 37.7999 28.8589 33.8629C28.3269 33.3384 27.7347 32.9166 26.9686 32.8245C25.6303 32.6635 24.4159 33.3194 23.838 34.4998C23.3224 35.5537 23.389 36.7418 24.5075 37.8217C28.9578 42.1108 33.3686 46.4394 37.8138 50.7328C38.5747 51.4714 39.3906 52.1531 40.2549 52.7723C43.5021 55.0874 47.1633 56.3676 51.1281 56.8829C54.24 57.2865 57.3276 57.2 60.3916 56.5237C66.236 55.235 71.0772 52.3062 74.8902 47.7871C78.0386 44.0526 79.9426 39.7613 80.6064 34.9434C80.991 32.1961 80.9107 29.4052 80.3687 26.6835C79.4843 22.2333 77.5668 18.2514 74.4942 14.8621C68.6319 8.39911 61.2566 5.51387 52.48 6.15785C49.1038 6.40531 45.9102 7.37901 42.905 8.92357C41.2832 9.75084 39.7577 10.7484 38.3552 11.8988V11.8988ZM36.2078 57.0165C36.087 56.9066 35.9667 56.7963 35.8469 56.6854C34.0274 54.9988 32.1979 53.3228 30.3999 51.6144C30.0519 51.284 29.7318 51.123 29.2392 51.1342C27.4182 51.1778 25.5959 51.1856 23.8015 50.7876C14.8795 48.8065 9.69889 39.2825 12.987 30.9024C15.5805 24.2946 22.7603 20.2705 29.8406 21.5113C33.0142 22.0674 35.7996 23.3863 38.0859 25.7014C40.8742 28.5276 43.7456 31.2729 46.564 34.0703C47.2056 34.7072 47.9424 34.9976 48.831 34.8731C49.9795 34.7121 50.8939 34.175 51.3092 33.0692C51.7159 31.9809 51.519 30.9502 50.6798 30.1157C47.7218 27.1735 44.834 24.1575 41.7564 21.3405C35.7874 15.8744 28.7487 14.249 20.9638 16.5732C10.493 19.6968 4.36504 30.3126 6.75736 40.7877C8.93773 50.3321 17.4394 57.0306 27.3875 57.039C30.165 57.0418 32.9433 57.0404 35.7208 57.039C35.8583 57.039 35.9958 57.027 36.2078 57.0165Z" fill="#DA1F26"/>
</svg>
