<svg width="883" height="221" viewBox="0 0 883 221" fill="none" xmlns="http://www.w3.org/2000/svg">
<g clip-path="url(#clip0)">
<path d="M453.3 97C451 94.898 448.6 93.398 446.2 92.5C443.8 91.5 441.2 91.1 438.4 91.1C432.7 91.1 428.2 92.799 424.8 96.2C421.4 99.6 419.7 104.2 419.7 109.899C419.7 115.501 421.3 120.001 424.4 123.2C427.5 126.501 431.8 128.1 437.2 128.1C440.3 128.1 443.1 127.6 445.8 126.6C448.4 125.6 450.9 124 453.2 122L453.1 133.699C450.7 135.099 448.1 136.199 445.5 136.898C442.8 137.599 440 138 437.1 138C428.6 138 421.6 135.398 416.2 130.1C410.8 124.799 408 118.1 408 110C408 101.898 410.7 95.199 416.2 89.898C421.7 84.599 428.7 82 437.3 82C440.2 82 443 82.299 445.7 82.898C448.4 83.5 451.1 84.398 453.7 85.699L453.3 97Z" fill="black"/>
<path d="M514.4 136.399H501.3L487.3 111.501V136.399H475.9V83.0996H492.2C498.7 83.0996 503.5 84.3986 506.8 86.8986C510 89.3986 511.6 93.1996 511.6 98.1996C511.6 101.899 510.5 105.001 508.3 107.6C506.1 110.2 503.2 111.7 499.7 112.2L514.4 136.399ZM487.2 105.899H488.9C493.5 105.899 496.6 105.399 498 104.399C499.5 103.399 500.2 101.6 500.2 99.0996C500.2 96.4996 499.4 94.5996 497.8 93.4996C496.2 92.3976 493.2 91.7986 488.8 91.7986H487.1V105.899H487.2Z" fill="black"/>
<path d="M532.9 136.399V83.0996H564.3V92.6996H544.3V103.7H564.3V113.399H544.3V126.799H564.3V136.5H532.9V136.399V136.399Z" fill="black"/>
<path d="M607.4 92.7986V136.399H596V92.7986H583V83.0996H620.5V92.7986H607.4Z" fill="black"/>
<path d="M635.199 136.399L643.299 83.0996H655.2L665.499 114.5C665.7 115.199 665.999 116.1 666.2 117.398C666.499 118.699 666.7 120.099 666.899 121.699C667.098 120.099 667.299 118.599 667.598 117.299C667.799 116 668.098 115.1 668.299 114.399L678.799 83.0996H690.598L698.799 136.399H687.999L684.099 104.2C683.8 101.8 683.599 100.001 683.499 98.7996C683.399 97.6006 683.399 96.5006 683.399 95.3996C683.399 94.7996 683.399 94.3996 683.399 94.1006C683.399 93.7996 683.399 93.6006 683.499 93.3996C683.099 95.5016 682.8 97.2996 682.499 98.7996C682.2 100.3 681.899 101.501 681.599 102.2L669.999 136.399H663.599L652.499 102.299C652.399 102 652.2 101.1 651.899 99.6986C651.598 98.2976 651.098 96.1986 650.499 93.3976V94.9996C650.499 97.4996 650.3 100.5 649.8 104.1V104.2L645.9 136.399H635.199V136.399Z" fill="black"/>
<path d="M711.6 136.399L731.901 83.0996H744.901L765.501 136.399H752.501L748.202 125.1H727.6L723.901 136.399H711.6ZM745.6 116.199L739.6 98.9996C739.401 98.4996 739.202 97.5996 738.901 96.3976C738.6 95.1986 738.401 93.5986 738.1 91.7976C737.801 93.4986 737.5 95.0986 737.202 96.3976C736.901 97.7976 736.702 98.6986 736.501 99.1986L730.702 116.199H745.6Z" fill="black"/>
<path d="M821.6 136.399H808.5L794.5 111.501V136.399H783.1V83.0996H799.401C805.901 83.0996 810.702 84.3986 814.001 86.8986C817.202 89.3986 818.802 93.1996 818.802 98.1996C818.802 101.899 817.702 105.001 815.501 107.6C813.302 110.2 810.401 111.7 806.901 112.2L821.6 136.399ZM794.501 105.899H796.202C800.802 105.899 803.901 105.399 805.302 104.399C806.802 103.399 807.501 101.6 807.501 99.0996C807.501 96.4996 806.702 94.5996 805.101 93.4996C803.501 92.3976 800.501 91.7986 796.101 91.7986H794.402V105.899H794.501Z" fill="black"/>
<path d="M840.201 136.399V83.0996H851.599V107.299L869.4 83.1986H882.599L863.499 107.5L883.3 136.5H869.599L851.701 108.6V136.5H840.201V136.399Z" fill="black"/>
<path d="M224.319 113.56L168.969 168.898C153.289 184.577 132.479 193.196 110.339 193.196C88.198 193.196 67.389 184.576 51.719 168.898C36.039 153.218 27.419 132.419 27.419 110.28C27.419 88.1295 36.039 67.3295 51.719 51.6495C67.389 35.9685 88.198 27.3485 110.339 27.3485C127.698 27.3485 144.278 32.6495 158.229 42.5585L177.829 22.9585C134.569 -10.5115 71.939 -7.36147 32.319 32.2585C11.439 53.1385 0 80.8485 0 110.349C0 139.848 11.52 167.557 32.319 188.436C53.13 209.315 80.92 220.755 110.42 220.755C139.909 220.755 167.63 209.245 188.51 188.436L243.86 133.098L224.319 113.56ZM365.109 0.00953162L337.779 0.159526L247.5 90.4395L188.43 32.2585C186.5 30.3285 184.57 28.5385 182.56 26.8285C182.54 26.8075 182.52 26.7985 182.5 26.7785L182.47 26.7485L163 46.2185C163.01 46.2295 163.02 46.2395 163.029 46.2395C163.55 46.6695 164.059 47.0985 164.569 47.5395C166.09 48.8595 167.579 50.2595 169.019 51.7195L228.019 109.821L228.029 109.831H228.04L247.359 128.88L247.63 129.14L267.1 109.671L268.51 108.271L268.52 108.282L337.63 39.1715V179.15L337.609 179.129V220.658L337.71 220.758H365.199V0.00953162H365.109ZM251.578 133.139L331.999 214.947V173.597L271.108 113.611L251.578 133.139Z" fill="#41447B"/>
<path d="M365.2 0.000991821V220.757H337.7V39.161L268.6 108.271L267.19 109.671L247.72 129.14L247.449 128.88L228.13 109.831H228.119L228.109 109.821L169.109 51.72C167.669 50.281 166.179 48.88 164.659 47.54C164.149 47.1 163.639 46.67 163.119 46.24C163.109 46.24 163.099 46.23 163.09 46.219L182.63 26.679C182.64 26.69 182.65 26.7 182.659 26.7C184.659 28.41 186.579 30.25 188.499 32.099L247.569 90.28L337.849 0H365.2V0.000991821Z" fill="#B72851"/>
</g>
<defs>
<clipPath id="clip0">
<rect width="883" height="221" fill="white"/>
</clipPath>
</defs>
</svg>
