<svg width="129" height="129" viewBox="0 0 129 129" fill="none" xmlns="http://www.w3.org/2000/svg">
<path d="M48.375 77.3752V37.8421C39.4141 39.1445 31.2223 43.6313 25.2997 50.4808C19.377 57.3303 16.12 66.0841 16.125 75.1392C16.125 95.9727 32.9703 112.872 53.75 112.872C61.8705 112.872 69.7695 110.224 76.2497 105.331L48.375 77.3752ZM87.7791 33.3916C89.8754 31.2899 89.741 28.0219 87.3008 26.3342C80.4445 21.5851 72.6553 18.3511 64.4516 16.8473C61.5276 16.3098 59.125 18.5243 59.125 21.4967V62.1317L87.7791 33.3916Z" fill="#41447B"/>
<path d="M64.5 74.0288L90.8805 100.485C92.9768 102.586 96.2018 102.42 97.7928 99.9148C102.692 92.1722 105.288 83.1965 105.28 74.0342C105.289 63.034 101.55 52.3589 94.6806 43.7676L64.5 74.0288Z" fill="#B72851"/>
</svg>
